# xmcd
#
# Track frame offsets: 
#        150
#        13147
#        23785
#        35297
#        46245
#        58349
#        69536
#        83695
#        95934
#        107701
#        118303
#        131377
#
# Disc length: 1901 seconds
#
# Revision: 0
# Processed by: cddbd v1.5.2PL0 Copyright (c) Steve Scherf et al.
# Submitted via: ExactAudioCopy v0.95b4
#
DISCID=a4076b0c
DTITLE=Chuck Higgins - Pachuko Hop
DYEAR=1952
DGENRE=R&B
TTITLE0=Pachuko Hop
TTITLE1=Blues 'N' Mambo
TTITLE2=Iron Pipe
TTITLE3=Boyle Heights
TTITLE4=Blue Sax
TTITLE5=Papa Charlie
TTITLE6=The Duck Walk
TTITLE7=The Rooster
TTITLE8=Tortas
TTITLE9=Big Fat Mama
TTITLE10=Stormy
TTITLE11=Just Won't Treat Me Rite
EXTD=
EXTT0=
EXTT1=
EXTT2=
EXTT3=
EXTT4=
EXTT5=
EXTT6=
EXTT7=
EXTT8=
EXTT9=
EXTT10=
EXTT11=
PLAYORDER=
